<svg width="109" height="109" viewBox="0 0 109 109" fill="none" xmlns="http://www.w3.org/2000/svg">
<path d="M72.076 51.8378L34.2531 15.7998C33.622 15.1982 32.7835 14.8625 31.9116 14.8625C31.0397 14.8625 30.2012 15.1982 29.5701 15.7998L29.5294 15.8405C29.2224 16.1322 28.978 16.4832 28.8109 16.8723C28.6439 17.2614 28.5577 17.6805 28.5577 18.1039C28.5577 18.5274 28.6439 18.9464 28.8109 19.3355C28.978 19.7246 29.2224 20.0757 29.5294 20.3673L65.1467 54.3014L29.5294 88.222C29.2224 88.5136 28.978 88.8647 28.8109 89.2538C28.6439 89.6429 28.5577 90.0619 28.5577 90.4854C28.5577 90.9088 28.6439 91.3279 28.8109 91.717C28.978 92.1061 29.2224 92.4571 29.5294 92.7488L29.5701 92.7895C30.2012 93.3911 31.0397 93.7268 31.9116 93.7268C32.7835 93.7268 33.622 93.3911 34.2531 92.7895L72.076 56.7515C72.4087 56.4346 72.6735 56.0534 72.8544 55.6311C73.0354 55.2088 73.1287 54.7541 73.1287 54.2946C73.1287 53.8352 73.0354 53.3805 72.8544 52.9582C72.6735 52.5359 72.4087 52.1547 72.076 51.8378Z" fill="black" fill-opacity="0.6"/>
</svg>
