<svg width="109" height="109" viewBox="0 0 109 109" fill="none" xmlns="http://www.w3.org/2000/svg">
<path d="M36.5131 56.7512L74.3361 92.7893C74.9672 93.3909 75.8056 93.7265 76.6775 93.7265C77.5494 93.7265 78.3879 93.3909 79.019 92.7893L79.0597 92.7486C79.3667 92.4569 79.6111 92.1058 79.7782 91.7167C79.9452 91.3276 80.0314 90.9086 80.0314 90.4851C80.0314 90.0617 79.9452 89.6427 79.7782 89.2536C79.6111 88.8644 79.3667 88.5134 79.0597 88.2217L43.4424 54.2876L79.0597 20.3671C79.3667 20.0754 79.6111 19.7244 79.7782 19.3353C79.9452 18.9461 80.0314 18.5271 80.0314 18.1037C80.0314 17.6802 79.9452 17.2612 79.7782 16.8721C79.6111 16.483 79.3667 16.1319 79.0597 15.8403L79.019 15.7995C78.3879 15.1979 77.5494 14.8623 76.6775 14.8623C75.8056 14.8623 74.9672 15.1979 74.3361 15.7995L36.5131 51.8376C36.1805 52.1545 35.9156 52.5357 35.7347 52.958C35.5538 53.3803 35.4604 53.835 35.4604 54.2944C35.4604 54.7538 35.5538 55.2085 35.7347 55.6308C35.9156 56.0531 36.1805 56.4343 36.5131 56.7512Z" fill="black" fill-opacity="0.6"/>
</svg>
