<svg width="299" height="299" viewBox="0 0 299 299" fill="none" xmlns="http://www.w3.org/2000/svg">
<g clip-path="url(#clip0_48_95)">
<path d="M433.366 285.865C433.366 289.719 430.212 292.873 426.358 292.873H153.5C149.646 292.873 146.492 289.719 146.492 285.865V13.0078C146.492 9.15351 149.646 6 153.5 6H426.357C430.212 6 433.365 9.15351 433.365 13.0078" fill="#FC7E17"/>
<path d="M153.98 132.581C184.851 132.581 209.876 107.556 209.876 76.6859C209.876 45.8157 184.851 20.7904 153.98 20.7904C123.11 20.7904 98.0848 45.8157 98.0848 76.6859C98.0848 107.556 123.11 132.581 153.98 132.581Z" fill="#FFC033"/>
<path d="M265.851 292.936V193.818C265.851 193.569 265.9 193.323 265.995 193.093C266.091 192.864 266.23 192.655 266.406 192.479C266.582 192.303 266.79 192.164 267.02 192.069C267.25 191.974 267.496 191.925 267.745 191.925H292.548V285.929C292.548 289.783 289.394 292.936 285.54 292.936H265.851ZM36.9294 157.934H5.67399V285.929C5.67399 289.783 8.8275 292.936 12.6818 292.936H38.8227V159.828C38.8228 159.579 38.7739 159.333 38.6787 159.103C38.5836 158.873 38.4442 158.665 38.2683 158.489C38.0925 158.313 37.8838 158.174 37.654 158.078C37.4243 157.983 37.1781 157.934 36.9294 157.934ZM251.679 119.048H171.161C170.514 119.048 169.894 119.304 169.437 119.762C168.979 120.219 168.722 120.839 168.722 121.486V292.937H254.116V121.486C254.116 121.166 254.053 120.849 253.931 120.553C253.809 120.257 253.629 119.988 253.403 119.762C253.176 119.535 252.907 119.356 252.612 119.233C252.316 119.111 251.999 119.048 251.679 119.048ZM136.254 182.139H84.951C84.5389 182.139 84.1436 182.303 83.8522 182.595C83.5608 182.886 83.3971 183.281 83.3971 183.693V292.937H137.807V183.693C137.807 183.281 137.644 182.886 137.352 182.594C137.061 182.303 136.666 182.139 136.254 182.139Z" fill="#D1552A"/>
<path d="M14.7433 195.306H9.81444C9.45201 195.306 9.10443 195.162 8.84816 194.906C8.59189 194.649 8.44791 194.302 8.44791 193.939V178.81C8.44791 178.447 8.59189 178.1 8.84816 177.843C9.10443 177.587 9.45201 177.443 9.81444 177.443H14.7433C15.1057 177.443 15.4533 177.587 15.7095 177.843C15.9658 178.1 16.1098 178.447 16.1098 178.81V193.939C16.1098 194.302 15.9658 194.649 15.7095 194.906C15.4533 195.162 15.1057 195.306 14.7433 195.306ZM30.5418 193.94V178.81C30.5418 178.448 30.3978 178.1 30.1415 177.844C29.8853 177.588 29.5377 177.444 29.1753 177.444H24.2464C23.884 177.444 23.5364 177.588 23.2802 177.844C23.0239 178.1 22.8799 178.448 22.8799 178.81V193.94C22.8799 194.302 23.0239 194.65 23.2802 194.906C23.5364 195.163 23.884 195.307 24.2464 195.307H29.1753C29.5376 195.306 29.8851 195.162 30.1414 194.906C30.3976 194.65 30.5416 194.302 30.5418 193.94ZM16.1098 222.047V206.917C16.1098 206.555 15.9658 206.207 15.7095 205.951C15.4533 205.695 15.1057 205.551 14.7433 205.551H9.81444C9.45201 205.551 9.10443 205.695 8.84816 205.951C8.59189 206.207 8.44791 206.555 8.44791 206.917V222.047C8.44791 222.41 8.59189 222.757 8.84816 223.013C9.10443 223.27 9.45201 223.414 9.81444 223.414H14.7433C15.1056 223.414 15.4531 223.27 15.7094 223.013C15.9656 222.757 16.1096 222.41 16.1098 222.047ZM30.5418 222.047V206.917C30.5418 206.555 30.3978 206.207 30.1415 205.951C29.8853 205.695 29.5377 205.551 29.1753 205.551H24.2464C23.884 205.551 23.5364 205.695 23.2802 205.951C23.0239 206.207 22.8799 206.555 22.8799 206.917V222.047C22.8799 222.41 23.0239 222.757 23.2802 223.013C23.5364 223.27 23.884 223.414 24.2464 223.414H29.1753C29.5376 223.414 29.8851 223.27 30.1414 223.013C30.3976 222.757 30.5416 222.41 30.5418 222.047ZM16.1098 249.515V234.385C16.1098 234.023 15.9658 233.675 15.7095 233.419C15.4533 233.162 15.1057 233.019 14.7433 233.019H9.81444C9.45201 233.019 9.10443 233.162 8.84816 233.419C8.59189 233.675 8.44791 234.023 8.44791 234.385V249.515C8.44791 249.877 8.59189 250.225 8.84816 250.481C9.10443 250.737 9.45201 250.881 9.81444 250.881H14.7433C15.1056 250.881 15.4531 250.737 15.7094 250.481C15.9656 250.225 16.1096 249.877 16.1098 249.515ZM30.5418 249.515V234.385C30.5418 234.023 30.3978 233.675 30.1415 233.419C29.8853 233.162 29.5377 233.019 29.1753 233.019H24.2464C23.884 233.019 23.5364 233.162 23.2802 233.419C23.0239 233.675 22.8799 234.023 22.8799 234.385V249.515C22.8799 249.877 23.0239 250.225 23.2802 250.481C23.5364 250.737 23.884 250.881 24.2464 250.881H29.1753C29.5376 250.881 29.8851 250.737 30.1414 250.481C30.3976 250.225 30.5416 249.877 30.5418 249.515ZM16.1098 277.622V262.492C16.1098 262.13 15.9658 261.782 15.7095 261.526C15.4533 261.27 15.1057 261.126 14.7433 261.126H9.81444C9.45201 261.126 9.10443 261.27 8.84816 261.526C8.59189 261.782 8.44791 262.13 8.44791 262.492V277.622C8.44791 277.984 8.59189 278.332 8.84816 278.588C9.10443 278.845 9.45201 278.989 9.81444 278.989H14.7433C15.1056 278.988 15.4531 278.844 15.7094 278.588C15.9656 278.332 16.1096 277.984 16.1098 277.622ZM30.5418 277.622V262.492C30.5418 262.13 30.3978 261.782 30.1415 261.526C29.8853 261.27 29.5377 261.126 29.1753 261.126H24.2464C23.884 261.126 23.5364 261.27 23.2802 261.526C23.0239 261.782 22.8799 262.13 22.8799 262.492V277.622C22.8799 277.984 23.0239 278.332 23.2802 278.588C23.5364 278.845 23.884 278.989 24.2464 278.989H29.1753C29.5376 278.988 29.8851 278.844 30.1414 278.588C30.3976 278.332 30.5416 277.984 30.5418 277.622ZM206.273 165.424V145.936C206.273 145.469 206.087 145.021 205.757 144.691C205.427 144.361 204.979 144.176 204.512 144.176H198.164C197.697 144.176 197.249 144.361 196.919 144.691C196.589 145.021 196.404 145.469 196.404 145.936V165.424C196.404 165.891 196.589 166.339 196.919 166.669C197.249 166.999 197.697 167.184 198.164 167.184H204.512C204.979 167.184 205.427 166.999 205.757 166.669C206.087 166.339 206.273 165.891 206.273 165.424ZM224.861 165.424V145.936C224.861 145.705 224.816 145.476 224.727 145.262C224.639 145.049 224.509 144.855 224.346 144.691C224.182 144.528 223.988 144.398 223.775 144.31C223.561 144.221 223.332 144.176 223.101 144.176H216.753C216.286 144.176 215.838 144.361 215.508 144.691C215.178 145.021 214.993 145.469 214.993 145.936V165.424C214.993 165.891 215.178 166.339 215.508 166.669C215.838 166.999 216.286 167.184 216.753 167.184H223.101C223.332 167.184 223.561 167.139 223.775 167.05C223.989 166.962 224.183 166.832 224.346 166.669C224.51 166.505 224.639 166.311 224.728 166.098C224.816 165.884 224.862 165.655 224.861 165.424ZM243.45 165.424V145.936C243.45 145.469 243.265 145.021 242.935 144.691C242.605 144.361 242.157 144.176 241.69 144.176H235.342C234.875 144.176 234.427 144.361 234.097 144.691C233.767 145.021 233.581 145.469 233.581 145.936V165.424C233.581 165.891 233.767 166.339 234.097 166.669C234.427 166.999 234.875 167.184 235.342 167.184H241.69C241.921 167.184 242.15 167.139 242.364 167.05C242.577 166.962 242.771 166.832 242.935 166.669C243.098 166.505 243.228 166.311 243.316 166.098C243.405 165.884 243.45 165.655 243.45 165.424ZM206.273 201.628V182.139C206.273 181.673 206.087 181.225 205.757 180.895C205.427 180.565 204.979 180.379 204.512 180.379H198.164C197.697 180.379 197.249 180.565 196.919 180.895C196.589 181.225 196.404 181.673 196.404 182.139V201.628C196.404 202.094 196.589 202.542 196.919 202.872C197.249 203.202 197.697 203.388 198.164 203.388H204.512C204.979 203.388 205.427 203.202 205.757 202.872C206.087 202.542 206.272 202.094 206.273 201.628ZM224.861 201.628V182.139C224.861 181.673 224.676 181.225 224.346 180.895C224.016 180.565 223.568 180.379 223.101 180.379H216.753C216.286 180.379 215.838 180.565 215.508 180.895C215.178 181.225 214.993 181.673 214.993 182.139V201.628C214.993 202.094 215.178 202.542 215.508 202.872C215.838 203.202 216.286 203.388 216.753 203.388H223.101C223.568 203.388 224.016 203.202 224.346 202.872C224.676 202.542 224.861 202.094 224.861 201.628ZM243.45 201.628V182.139C243.45 181.673 243.265 181.225 242.935 180.895C242.605 180.565 242.157 180.379 241.69 180.379H235.342C234.875 180.379 234.427 180.565 234.097 180.895C233.767 181.225 233.581 181.673 233.581 182.139V201.628C233.581 202.094 233.767 202.542 234.097 202.872C234.427 203.202 234.875 203.388 235.342 203.388H241.69C242.157 203.388 242.605 203.202 242.935 202.872C243.265 202.542 243.45 202.094 243.45 201.628ZM206.273 237.007V217.519C206.273 217.052 206.087 216.604 205.757 216.274C205.427 215.944 204.979 215.759 204.512 215.759H198.164C197.697 215.759 197.249 215.944 196.919 216.274C196.589 216.604 196.404 217.052 196.404 217.519V237.007C196.404 237.474 196.589 237.922 196.919 238.252C197.249 238.582 197.697 238.767 198.164 238.767H204.512C204.979 238.767 205.427 238.582 205.757 238.252C206.087 237.922 206.273 237.474 206.273 237.007ZM224.861 237.007V217.519C224.861 217.052 224.676 216.604 224.346 216.274C224.016 215.944 223.568 215.759 223.101 215.759H216.753C216.522 215.759 216.293 215.804 216.079 215.893C215.866 215.981 215.672 216.111 215.508 216.274C215.345 216.438 215.215 216.632 215.127 216.845C215.038 217.059 214.993 217.288 214.993 217.519V237.007C214.993 237.238 215.038 237.467 215.127 237.681C215.215 237.894 215.345 238.088 215.508 238.252C215.672 238.415 215.866 238.545 216.079 238.633C216.293 238.722 216.522 238.767 216.753 238.767H223.101C223.332 238.767 223.561 238.722 223.775 238.633C223.989 238.545 224.183 238.415 224.346 238.252C224.51 238.088 224.639 237.894 224.728 237.681C224.816 237.467 224.862 237.238 224.861 237.007ZM206.273 273.211V253.722C206.273 253.256 206.087 252.808 205.757 252.478C205.427 252.148 204.979 251.962 204.512 251.962H198.164C197.697 251.962 197.249 252.148 196.919 252.478C196.589 252.808 196.404 253.256 196.404 253.722V273.211C196.404 273.677 196.589 274.125 196.919 274.455C197.249 274.785 197.697 274.971 198.164 274.971H204.512C204.979 274.971 205.427 274.785 205.757 274.455C206.087 274.125 206.272 273.677 206.273 273.211ZM224.861 273.211V253.722C224.861 253.256 224.676 252.808 224.346 252.478C224.016 252.148 223.568 251.962 223.101 251.962H216.753C216.522 251.962 216.293 252.008 216.079 252.096C215.866 252.185 215.672 252.314 215.508 252.478C215.345 252.641 215.215 252.835 215.127 253.049C215.038 253.262 214.993 253.491 214.993 253.722V273.211C214.993 273.442 215.038 273.671 215.127 273.884C215.215 274.098 215.345 274.292 215.508 274.455C215.672 274.619 215.866 274.748 216.079 274.837C216.293 274.925 216.522 274.971 216.753 274.971H223.101C223.568 274.971 224.016 274.785 224.346 274.455C224.676 274.125 224.861 273.677 224.861 273.211Z" fill="#ED8135"/>
<path d="M199.926 143.68V292.936H125.587V143.68C125.587 143.401 125.642 143.125 125.748 142.868C125.855 142.61 126.011 142.376 126.209 142.179C126.406 141.982 126.64 141.825 126.897 141.719C127.155 141.612 127.431 141.557 127.71 141.557H197.804C198.082 141.557 198.359 141.612 198.616 141.719C198.874 141.825 199.108 141.982 199.305 142.179C199.502 142.376 199.658 142.61 199.765 142.868C199.872 143.125 199.927 143.401 199.926 143.68ZM279.445 215.891H217.761C217.556 215.891 217.354 215.94 217.171 216.033C216.989 216.127 216.831 216.262 216.711 216.429C216.592 216.595 216.513 216.788 216.483 216.991C216.452 217.193 216.471 217.401 216.536 217.595L218.856 224.489C218.926 224.697 219.048 224.877 219.201 225.02C219.171 225.134 219.154 225.251 219.152 225.369V292.936H278.053V225.369C278.053 225.248 278.033 225.132 278.004 225.02C278.158 224.877 278.279 224.697 278.349 224.489L280.669 217.595C280.735 217.401 280.753 217.194 280.722 216.991C280.692 216.788 280.613 216.595 280.494 216.429C280.374 216.263 280.217 216.127 280.034 216.033C279.852 215.94 279.65 215.891 279.445 215.891ZM111.178 133.356C111.849 133.356 112.493 133.089 112.967 132.615C113.442 132.14 113.708 131.496 113.708 130.825V124.705C113.708 124.034 113.442 123.39 112.967 122.916C112.493 122.441 111.849 122.175 111.178 122.175H93.3604V113.29C95.3436 112.559 96.761 110.659 96.761 108.422V98.0375C96.761 97.3557 96.6268 96.6805 96.3659 96.0505C96.105 95.4205 95.7225 94.8481 95.2404 94.3659C94.7582 93.8838 94.1858 93.5013 93.5558 93.2404C92.9258 92.9795 92.2506 92.8453 91.5688 92.8453H45.1572C44.4753 92.8453 43.8001 92.9795 43.1701 93.2404C42.5401 93.5013 41.9677 93.8838 41.4856 94.3659C41.0034 94.8481 40.621 95.4205 40.3601 96.0505C40.0992 96.6805 39.9649 97.3557 39.965 98.0375V108.422C39.965 110.659 41.3823 112.559 43.3655 113.29V122.175H25.5482C24.8771 122.175 24.2334 122.441 23.7589 122.916C23.2844 123.39 23.0178 124.034 23.0178 124.705V130.825C23.0178 131.496 23.2844 132.14 23.7589 132.615C24.2334 133.089 24.8771 133.356 25.5482 133.356H26.7447V172.292H25.5482C25.2159 172.292 24.8868 172.358 24.5798 172.485C24.2728 172.612 23.9939 172.798 23.7589 173.033C23.5239 173.268 23.3375 173.547 23.2104 173.854C23.0832 174.161 23.0178 174.49 23.0178 174.823V180.943C23.0178 181.614 23.2844 182.258 23.7589 182.732C24.2334 183.207 24.8771 183.473 25.5482 183.473H26.7447V253.835H25.5482C24.8771 253.835 24.2334 254.101 23.7589 254.576C23.2844 255.05 23.0178 255.694 23.0178 256.365V262.485C23.0178 263.156 23.2844 263.8 23.7589 264.274C24.2334 264.749 24.8771 265.016 25.5482 265.016H26.7447V292.936H110.603V265.016H111.178C111.849 265.016 112.493 264.749 112.968 264.274C113.442 263.8 113.709 263.156 113.709 262.485V256.365C113.709 255.694 113.442 255.05 112.968 254.576C112.493 254.101 111.849 253.835 111.178 253.835H110.603V183.474H111.178C111.849 183.474 112.493 183.207 112.968 182.733C113.442 182.258 113.709 181.615 113.709 180.943V174.823C113.709 174.491 113.643 174.162 113.516 173.855C113.389 173.548 113.203 173.269 112.968 173.034C112.733 172.799 112.454 172.613 112.147 172.486C111.84 172.358 111.511 172.293 111.178 172.293H110.603V133.356H111.178V133.356ZM88.7966 122.175H47.9294V113.614H88.7966V122.175Z" fill="#2B3B47"/>
<path d="M140.561 183.463H135.034C134.628 183.463 134.238 183.301 133.951 183.014C133.663 182.727 133.502 182.337 133.502 181.93V164.965C133.502 164.764 133.541 164.565 133.618 164.379C133.695 164.193 133.808 164.024 133.951 163.882C134.093 163.739 134.262 163.626 134.448 163.549C134.634 163.472 134.833 163.433 135.034 163.433H140.561C140.762 163.433 140.961 163.472 141.147 163.549C141.333 163.626 141.502 163.739 141.644 163.882C141.787 164.024 141.9 164.193 141.977 164.379C142.054 164.565 142.093 164.764 142.093 164.965V181.93C142.093 182.337 141.932 182.726 141.644 183.014C141.357 183.301 140.967 183.463 140.561 183.463ZM158.276 181.93V164.965C158.276 164.764 158.236 164.565 158.159 164.379C158.082 164.193 157.969 164.024 157.827 163.882C157.684 163.739 157.515 163.626 157.33 163.549C157.144 163.472 156.944 163.433 156.743 163.433H151.216C151.015 163.433 150.816 163.472 150.63 163.549C150.444 163.626 150.275 163.739 150.133 163.882C149.99 164.024 149.878 164.193 149.801 164.379C149.724 164.565 149.684 164.764 149.684 164.965V181.93C149.684 182.337 149.845 182.727 150.133 183.014C150.42 183.301 150.81 183.463 151.216 183.463H156.743C157.15 183.463 157.539 183.301 157.827 183.014C158.114 182.727 158.276 182.337 158.276 181.93ZM174.458 181.93V164.965C174.458 164.764 174.419 164.565 174.342 164.379C174.265 164.193 174.152 164.024 174.009 163.882C173.867 163.739 173.698 163.626 173.512 163.549C173.326 163.472 173.127 163.433 172.926 163.433H167.399C167.198 163.433 166.999 163.472 166.813 163.549C166.627 163.626 166.458 163.739 166.316 163.882C166.173 164.024 166.06 164.193 165.983 164.379C165.906 164.565 165.867 164.764 165.867 164.965V181.93C165.867 182.132 165.906 182.331 165.983 182.517C166.06 182.703 166.173 182.872 166.316 183.014C166.458 183.156 166.627 183.269 166.813 183.346C166.999 183.423 167.198 183.463 167.399 183.463H172.926C173.332 183.463 173.722 183.301 174.009 183.014C174.297 182.727 174.458 182.337 174.458 181.93ZM190.641 181.93V164.965C190.641 164.764 190.601 164.565 190.524 164.379C190.447 164.193 190.335 164.024 190.192 163.882C190.05 163.739 189.881 163.626 189.695 163.549C189.509 163.472 189.31 163.433 189.109 163.433H183.582C183.381 163.433 183.181 163.472 182.995 163.549C182.81 163.626 182.641 163.739 182.498 163.882C182.356 164.024 182.243 164.193 182.166 164.379C182.089 164.565 182.05 164.764 182.05 164.965V181.93C182.05 182.337 182.211 182.727 182.498 183.014C182.786 183.301 183.175 183.463 183.582 183.463H189.109C189.31 183.463 189.509 183.423 189.695 183.346C189.881 183.269 190.05 183.156 190.192 183.014C190.335 182.872 190.447 182.703 190.524 182.517C190.601 182.331 190.641 182.132 190.641 181.93ZM142.093 213.447V196.482C142.093 196.076 141.931 195.686 141.644 195.399C141.357 195.111 140.967 194.95 140.56 194.95H135.034C134.627 194.95 134.237 195.111 133.95 195.399C133.663 195.686 133.501 196.076 133.501 196.482V213.447C133.501 213.854 133.663 214.244 133.95 214.531C134.237 214.818 134.627 214.98 135.034 214.98H140.56C140.967 214.98 141.357 214.818 141.644 214.531C141.931 214.244 142.093 213.854 142.093 213.447ZM158.276 213.447V196.482C158.276 196.076 158.114 195.686 157.827 195.399C157.539 195.111 157.15 194.95 156.743 194.95H151.216C150.81 194.95 150.42 195.111 150.133 195.399C149.845 195.686 149.684 196.076 149.684 196.482V213.447C149.684 213.854 149.845 214.244 150.133 214.531C150.42 214.818 150.81 214.98 151.216 214.98H156.743C157.15 214.98 157.539 214.818 157.827 214.531C158.114 214.244 158.276 213.854 158.276 213.447ZM174.458 213.447V196.482C174.458 196.281 174.419 196.082 174.342 195.896C174.265 195.71 174.152 195.541 174.009 195.399C173.867 195.256 173.698 195.143 173.512 195.066C173.326 194.989 173.127 194.95 172.926 194.95H167.399C166.993 194.95 166.603 195.111 166.316 195.399C166.028 195.686 165.867 196.076 165.867 196.482V213.447C165.867 213.854 166.028 214.244 166.316 214.531C166.603 214.818 166.993 214.98 167.399 214.98H172.926C173.332 214.98 173.722 214.818 174.009 214.531C174.297 214.244 174.458 213.854 174.458 213.447ZM190.641 213.447V196.482C190.641 196.076 190.48 195.686 190.192 195.399C189.905 195.111 189.515 194.95 189.109 194.95H183.582C183.175 194.95 182.786 195.111 182.498 195.399C182.211 195.686 182.05 196.076 182.05 196.482V213.447C182.05 213.854 182.211 214.244 182.498 214.531C182.786 214.818 183.175 214.98 183.582 214.98H189.109C189.515 214.98 189.905 214.818 190.192 214.531C190.479 214.244 190.641 213.854 190.641 213.447ZM142.093 244.247V227.282C142.093 226.876 141.931 226.486 141.644 226.199C141.357 225.911 140.967 225.75 140.56 225.75H135.034C134.627 225.75 134.237 225.911 133.95 226.199C133.663 226.486 133.501 226.876 133.501 227.282V244.247C133.501 244.654 133.663 245.044 133.95 245.331C134.237 245.618 134.627 245.78 135.034 245.78H140.56C140.967 245.78 141.357 245.618 141.644 245.331C141.931 245.044 142.093 244.654 142.093 244.247ZM158.276 244.247V227.282C158.276 226.876 158.114 226.486 157.827 226.199C157.539 225.911 157.15 225.75 156.743 225.75H151.216C151.015 225.75 150.816 225.789 150.63 225.866C150.444 225.943 150.275 226.056 150.133 226.199C149.99 226.341 149.878 226.51 149.801 226.696C149.724 226.882 149.684 227.081 149.684 227.282V244.247C149.684 244.449 149.724 244.648 149.801 244.834C149.878 245.02 149.99 245.189 150.133 245.331C150.275 245.473 150.444 245.586 150.63 245.663C150.816 245.74 151.015 245.78 151.216 245.78H156.743C157.15 245.78 157.539 245.618 157.827 245.331C158.114 245.044 158.276 244.654 158.276 244.247ZM174.458 244.247V227.282C174.458 226.876 174.297 226.486 174.009 226.199C173.722 225.911 173.332 225.75 172.926 225.75H167.399C166.993 225.75 166.603 225.911 166.316 226.199C166.028 226.486 165.867 226.876 165.867 227.282V244.247C165.867 244.654 166.028 245.044 166.316 245.331C166.603 245.618 166.993 245.78 167.399 245.78H172.926C173.332 245.78 173.722 245.618 174.009 245.331C174.297 245.043 174.458 244.654 174.458 244.247ZM190.641 244.247V227.282C190.641 226.876 190.48 226.486 190.192 226.199C189.905 225.911 189.515 225.75 189.109 225.75H183.582C183.175 225.75 182.786 225.911 182.498 226.199C182.211 226.486 182.05 226.876 182.05 227.282V244.247C182.05 244.654 182.211 245.044 182.498 245.331C182.786 245.618 183.175 245.78 183.582 245.78H189.109C189.515 245.78 189.905 245.618 190.192 245.331C190.479 245.043 190.641 244.654 190.641 244.247ZM142.093 275.764V258.799C142.093 258.597 142.053 258.398 141.976 258.212C141.899 258.026 141.786 257.857 141.644 257.715C141.502 257.573 141.333 257.46 141.147 257.383C140.961 257.306 140.762 257.266 140.56 257.266H135.034C134.832 257.266 134.633 257.306 134.447 257.383C134.261 257.46 134.092 257.573 133.95 257.715C133.808 257.857 133.695 258.026 133.618 258.212C133.541 258.398 133.501 258.597 133.501 258.799V275.764C133.501 275.965 133.541 276.164 133.618 276.35C133.695 276.536 133.808 276.705 133.95 276.847C134.092 276.99 134.261 277.103 134.447 277.18C134.633 277.257 134.832 277.296 135.034 277.296H140.56C140.762 277.296 140.961 277.257 141.147 277.18C141.333 277.103 141.502 276.99 141.644 276.847C141.786 276.705 141.899 276.536 141.976 276.35C142.053 276.164 142.093 275.965 142.093 275.764ZM158.276 275.764V258.799C158.276 258.597 158.236 258.398 158.159 258.212C158.082 258.026 157.969 257.857 157.827 257.715C157.684 257.573 157.515 257.46 157.33 257.383C157.144 257.306 156.944 257.266 156.743 257.266H151.216C151.015 257.266 150.816 257.306 150.63 257.383C150.444 257.46 150.275 257.573 150.133 257.715C149.99 257.857 149.878 258.026 149.801 258.212C149.724 258.398 149.684 258.597 149.684 258.799V275.764C149.684 275.965 149.724 276.164 149.801 276.35C149.878 276.536 149.99 276.705 150.133 276.847C150.275 276.99 150.444 277.103 150.63 277.18C150.816 277.257 151.015 277.296 151.216 277.296H156.743C156.944 277.296 157.144 277.257 157.33 277.18C157.515 277.103 157.684 276.99 157.827 276.847C157.969 276.705 158.082 276.536 158.159 276.35C158.236 276.164 158.276 275.965 158.276 275.764ZM174.458 275.764V258.799C174.458 258.597 174.419 258.398 174.342 258.212C174.265 258.026 174.152 257.857 174.009 257.715C173.867 257.573 173.698 257.46 173.512 257.383C173.326 257.306 173.127 257.266 172.926 257.266H167.399C167.198 257.266 166.999 257.306 166.813 257.383C166.627 257.46 166.458 257.573 166.316 257.715C166.173 257.857 166.06 258.026 165.983 258.212C165.906 258.398 165.867 258.597 165.867 258.799V275.764C165.867 275.965 165.906 276.164 165.983 276.35C166.06 276.536 166.173 276.705 166.316 276.847C166.458 276.99 166.627 277.103 166.813 277.18C166.999 277.257 167.198 277.296 167.399 277.296H172.926C173.127 277.296 173.326 277.257 173.512 277.18C173.698 277.103 173.867 276.99 174.009 276.847C174.152 276.705 174.265 276.536 174.342 276.35C174.419 276.164 174.458 275.965 174.458 275.764ZM190.641 275.764V258.799C190.641 258.597 190.601 258.398 190.524 258.212C190.447 258.026 190.335 257.857 190.192 257.715C190.05 257.573 189.881 257.46 189.695 257.383C189.509 257.306 189.31 257.266 189.109 257.266H183.582C183.381 257.266 183.181 257.306 182.995 257.383C182.81 257.46 182.641 257.573 182.498 257.715C182.356 257.857 182.243 258.026 182.166 258.212C182.089 258.398 182.05 258.597 182.05 258.799V275.764C182.05 275.965 182.089 276.164 182.166 276.35C182.243 276.536 182.356 276.705 182.498 276.847C182.641 276.99 182.81 277.103 182.995 277.18C183.181 277.257 183.381 277.296 183.582 277.296H189.109C189.31 277.296 189.509 277.257 189.695 277.18C189.881 277.103 190.05 276.99 190.192 276.847C190.335 276.705 190.447 276.536 190.524 276.35C190.601 276.164 190.641 275.965 190.641 275.764ZM43.4058 212.65V197.378C43.4058 197.012 43.2605 196.661 43.0018 196.403C42.7431 196.144 42.3923 195.999 42.0264 195.999H37.0515C36.6856 195.999 36.3348 196.144 36.0761 196.403C35.8174 196.661 35.6721 197.012 35.6721 197.378V212.65C35.6721 213.016 35.8174 213.366 36.0761 213.625C36.3348 213.884 36.6856 214.029 37.0515 214.029H42.0264C42.3922 214.029 42.743 213.884 43.0016 213.625C43.2603 213.366 43.4056 213.016 43.4058 212.65ZM57.9727 212.65V197.378C57.9727 197.012 57.8274 196.661 57.5687 196.403C57.31 196.144 56.9592 195.999 56.5933 195.999H51.6184C51.2525 195.999 50.9017 196.144 50.643 196.403C50.3843 196.661 50.239 197.012 50.239 197.378V212.65C50.239 213.016 50.3843 213.366 50.643 213.625C50.9017 213.884 51.2525 214.029 51.6184 214.029H56.5933C56.9591 214.029 57.3099 213.884 57.5685 213.625C57.8272 213.366 57.9725 213.016 57.9727 212.65ZM72.5396 212.65V197.378C72.5396 197.012 72.3943 196.661 72.1356 196.403C71.8769 196.144 71.5261 195.999 71.1602 195.999H66.1853C65.8194 195.999 65.4686 196.144 65.2099 196.403C64.9512 196.661 64.8059 197.012 64.8059 197.378V212.65C64.8059 213.016 64.9512 213.366 65.2099 213.625C65.4686 213.884 65.8194 214.029 66.1853 214.029H71.1602C71.526 214.029 71.8768 213.884 72.1354 213.625C72.3941 213.366 72.5394 213.016 72.5396 212.65ZM87.1065 212.65V197.378C87.1065 197.012 86.9612 196.661 86.7025 196.403C86.4438 196.144 86.093 195.999 85.7271 195.999H80.7522C80.3863 195.999 80.0355 196.144 79.7768 196.403C79.5181 196.661 79.3728 197.012 79.3728 197.378V212.65C79.3728 213.016 79.5181 213.366 79.7768 213.625C80.0355 213.884 80.3863 214.029 80.7522 214.029H85.7271C86.0929 214.029 86.4437 213.884 86.7023 213.625C86.961 213.366 87.1064 213.016 87.1065 212.65ZM101.674 212.65V197.378C101.674 197.012 101.529 196.661 101.27 196.403C101.011 196.144 100.66 195.999 100.295 195.999H95.3197C94.9538 195.999 94.603 196.144 94.3443 196.403C94.0856 196.661 93.9403 197.012 93.9403 197.378V212.65C93.9403 213.016 94.0856 213.366 94.3443 213.625C94.603 213.884 94.9538 214.029 95.3197 214.029H100.295C100.66 214.029 101.011 213.884 101.27 213.625C101.528 213.366 101.674 213.016 101.674 212.65ZM43.4058 161.757V146.485C43.4058 146.12 43.2605 145.769 43.0018 145.51C42.7431 145.251 42.3923 145.106 42.0264 145.106H37.0515C36.8703 145.106 36.691 145.142 36.5236 145.211C36.3562 145.28 36.2042 145.382 36.0761 145.51C35.948 145.638 35.8464 145.79 35.7771 145.958C35.7078 146.125 35.6721 146.304 35.6721 146.485V161.757C35.6721 161.938 35.7078 162.118 35.7771 162.285C35.8464 162.452 35.948 162.605 36.0761 162.733C36.2042 162.861 36.3562 162.962 36.5236 163.032C36.691 163.101 36.8703 163.137 37.0515 163.137H42.0264C42.3922 163.136 42.743 162.991 43.0016 162.732C43.2603 162.474 43.4056 162.123 43.4058 161.757ZM57.9727 161.757V146.485C57.9727 146.12 57.8274 145.769 57.5687 145.51C57.31 145.251 56.9592 145.106 56.5933 145.106H51.6184C51.2525 145.106 50.9017 145.251 50.643 145.51C50.3843 145.769 50.239 146.12 50.239 146.485V161.757C50.239 161.938 50.2747 162.118 50.344 162.285C50.4133 162.452 50.5149 162.605 50.643 162.733C50.7711 162.861 50.9231 162.962 51.0905 163.032C51.2579 163.101 51.4372 163.137 51.6184 163.137H56.5933C56.9591 163.136 57.3099 162.991 57.5685 162.732C57.8272 162.474 57.9725 162.123 57.9727 161.757ZM72.5396 161.757V146.485C72.5396 146.12 72.3943 145.769 72.1356 145.51C71.8769 145.251 71.5261 145.106 71.1602 145.106H66.1853C65.8194 145.106 65.4686 145.251 65.2099 145.51C64.9512 145.769 64.8059 146.12 64.8059 146.485V161.757C64.8059 161.938 64.8416 162.118 64.9109 162.285C64.9802 162.452 65.0818 162.605 65.2099 162.733C65.338 162.861 65.4901 162.962 65.6574 163.032C65.8248 163.101 66.0041 163.137 66.1853 163.137H71.1602C71.526 163.136 71.8768 162.991 72.1354 162.732C72.3941 162.474 72.5394 162.123 72.5396 161.757ZM87.1065 161.757V146.485C87.1065 146.12 86.9612 145.769 86.7025 145.51C86.4438 145.251 86.093 145.106 85.7271 145.106H80.7522C80.3863 145.106 80.0355 145.251 79.7768 145.51C79.5181 145.769 79.3728 146.12 79.3728 146.485V161.757C79.3728 161.938 79.4085 162.118 79.4778 162.285C79.5471 162.452 79.6487 162.605 79.7768 162.733C79.9049 162.861 80.057 162.962 80.2243 163.032C80.3917 163.101 80.571 163.137 80.7522 163.137H85.7271C86.0929 163.136 86.4437 162.991 86.7023 162.732C86.961 162.474 87.1064 162.123 87.1065 161.757ZM101.674 161.757V146.485C101.674 146.12 101.529 145.769 101.27 145.51C101.011 145.251 100.66 145.106 100.295 145.106H95.3197C94.9538 145.106 94.603 145.251 94.3443 145.51C94.0856 145.769 93.9403 146.12 93.9403 146.485V161.757C93.9403 161.938 93.976 162.118 94.0453 162.285C94.1146 162.452 94.2162 162.605 94.3443 162.733C94.4724 162.861 94.6245 162.962 94.7918 163.032C94.9592 163.101 95.1385 163.137 95.3197 163.137H100.295C100.66 163.136 101.011 162.991 101.27 162.732C101.528 162.474 101.674 162.123 101.674 161.757ZM43.4058 241.02V225.748C43.4058 225.382 43.2605 225.031 43.0018 224.773C42.7431 224.514 42.3923 224.369 42.0264 224.369H37.0515C36.6856 224.369 36.3348 224.514 36.0761 224.773C35.8174 225.031 35.6721 225.382 35.6721 225.748V241.02C35.6721 241.386 35.8174 241.736 36.0761 241.995C36.3348 242.254 36.6856 242.399 37.0515 242.399H42.0264C42.3922 242.399 42.743 242.254 43.0016 241.995C43.2603 241.736 43.4056 241.385 43.4058 241.02ZM57.9727 241.02V225.748C57.9727 225.382 57.8274 225.031 57.5687 224.773C57.31 224.514 56.9592 224.369 56.5933 224.369H51.6184C51.2525 224.369 50.9017 224.514 50.643 224.773C50.3843 225.031 50.239 225.382 50.239 225.748V241.02C50.239 241.386 50.3843 241.736 50.643 241.995C50.9017 242.254 51.2525 242.399 51.6184 242.399H56.5933C56.9591 242.399 57.3099 242.254 57.5685 241.995C57.8272 241.736 57.9725 241.385 57.9727 241.02ZM72.5396 241.02V225.748C72.5396 225.382 72.3943 225.031 72.1356 224.773C71.8769 224.514 71.5261 224.369 71.1602 224.369H66.1853C65.8194 224.369 65.4686 224.514 65.2099 224.773C64.9512 225.031 64.8059 225.382 64.8059 225.748V241.02C64.8059 241.386 64.9512 241.736 65.2099 241.995C65.4686 242.254 65.8194 242.399 66.1853 242.399H71.1602C71.526 242.399 71.8768 242.254 72.1354 241.995C72.3941 241.736 72.5394 241.385 72.5396 241.02ZM87.1065 241.02V225.748C87.1065 225.382 86.9612 225.031 86.7025 224.773C86.4438 224.514 86.093 224.369 85.7271 224.369H80.7522C80.3863 224.369 80.0355 224.514 79.7768 224.773C79.5181 225.031 79.3728 225.382 79.3728 225.748V241.02C79.3728 241.386 79.5181 241.736 79.7768 241.995C80.0355 242.254 80.3863 242.399 80.7522 242.399H85.7271C86.0929 242.399 86.4437 242.254 86.7023 241.995C86.961 241.736 87.1064 241.385 87.1065 241.02ZM101.674 241.02V225.748C101.674 225.382 101.529 225.031 101.27 224.773C101.011 224.514 100.66 224.369 100.295 224.369H95.3197C94.9538 224.369 94.603 224.514 94.3443 224.773C94.0856 225.031 93.9403 225.382 93.9403 225.748V241.02C93.9403 241.386 94.0856 241.736 94.3443 241.995C94.603 242.254 94.9538 242.399 95.3197 242.399H100.295C100.66 242.399 101.011 242.254 101.27 241.995C101.528 241.736 101.674 241.385 101.674 241.02ZM243.293 259.086V242.669C243.293 241.71 242.912 240.79 242.234 240.112C241.556 239.434 240.636 239.053 239.677 239.053H231.856C230.897 239.053 229.977 239.434 229.299 240.112C228.621 240.79 228.24 241.71 228.24 242.669V259.086C228.24 260.045 228.621 260.965 229.299 261.643C229.977 262.321 230.897 262.702 231.856 262.702H239.677C240.636 262.702 241.556 262.321 242.234 261.643C242.912 260.965 243.293 260.045 243.293 259.086ZM269.198 259.086V242.669C269.198 241.71 268.817 240.79 268.139 240.112C267.461 239.434 266.542 239.053 265.583 239.053H257.761C256.802 239.053 255.883 239.434 255.205 240.112C254.527 240.79 254.146 241.71 254.146 242.669V259.086C254.146 260.045 254.527 260.965 255.205 261.643C255.883 262.321 256.802 262.702 257.761 262.702H265.583C266.541 262.702 267.461 262.321 268.139 261.643C268.817 260.965 269.198 260.045 269.198 259.086Z" fill="#FFCF53"/>
</g>
<defs>
<clipPath id="clip0_48_95">
<rect width="299" height="299" fill="white"/>
</clipPath>
</defs>
</svg>
